<?xml version="1.0" encoding="iso-8859-1"?>
<!-- Generator: Adobe Illustrator 19.0.0, SVG Export Plug-In . SVG Version: 6.00 Build 0)  -->
<svg version="1.1" id="Layer_1" xmlns="http://www.w3.org/2000/svg" xmlns:xlink="http://www.w3.org/1999/xlink" x="0px" y="0px"
	 viewBox="0 0 512.002 512.002" style="enable-background:new 0 0 512.002 512.002;" xml:space="preserve">
<g>
	<path style="fill:#D80027;" d="M348.854,380.774c-2.126-2.265-51.308-56.648,15.394-156.701
		c6.125-9.191,18.543-11.673,27.734-5.546c9.191,6.126,11.675,18.544,5.546,27.734c-48.505,72.759-19.809,106.821-19.506,107.145
		c7.559,8.054,7.632,21.255-0.9,28.269C365.146,391.521,352.79,384.969,348.854,380.774z"/>
	<path style="fill:#D80027;" d="M410.564,452.304c-29.415,0-52.772-8.651-69.454-18.036c-29.226-16.441-44.115-38.071-45.716-40.483
		c-6.111-9.201-3.603-21.614,5.599-27.723c9.172-6.09,21.532-3.618,27.664,5.508c1.918,2.805,45.171,64.127,131.217,30.727
		c10.301-3.993,21.885,1.116,25.881,11.41c3.996,10.297-1.113,21.885-11.41,25.881C450.714,448.757,429.396,452.304,410.564,452.304
		z"/>
	<path style="fill:#D80027;" d="M80.717,321.554c-15.277,0-32.743-2.165-52.592-7.524c-10.664-2.879-16.973-13.857-14.095-24.522
		s13.851-16.975,24.522-14.095c72.505,19.577,98.918-14.886,98.918-14.886l33.122,22.423
		C169.285,284.883,143.562,321.554,80.717,321.554z"/>
	<path style="fill:#D80027;" d="M90.512,230.224c-9.458-5.652-12.56-17.883-6.952-27.356c0.444-0.764,24.898-43.716,7.571-88.479
		c-3.988-10.301,1.131-21.883,11.431-25.871c10.301-3.993,21.882,1.131,25.871,11.431c24.574,63.483-9.091,120.927-10.495,123.366
		C109.08,238.704,93.726,232.144,90.512,230.224z"/>
</g>
<g>
	<path style="fill:#A5001E;" d="M392.175,410.614c-41.179-7.307-62.195-37.111-63.519-39.046
		c-6.131-9.126-18.492-11.597-27.664-5.508c-9.201,6.11-11.709,18.522-5.599,27.723c1.473,2.219,14.203,20.702,38.985,36.447
		C354.864,425.163,374.152,418.611,392.175,410.614z"/>
	<path style="fill:#A5001E;" d="M329.401,324.949c0.943,35.465,18.166,54.504,19.405,55.826c3.936,4.195,16.292,10.746,28.269,0.9
		c8.532-7.014,8.458-20.215,0.9-28.269c-0.202-0.215-12.91-15.308-7.24-46.716C358.333,313.918,344.569,319.998,329.401,324.949z"/>
</g>
<g>
	<path style="fill:#FF0C38;" d="M226.574,411.508c-28.628,0-47.679-2.698-49.106-2.908c-10.93-1.598-18.495-11.752-16.895-22.682
		c1.597-10.921,11.735-18.474,22.66-16.899l0,0c0.584,0.085,59.253,8.258,124.539-5.825
		c84.333-18.194,139.978-63.53,165.389-134.749c3.713-10.403,15.152-15.829,25.558-12.116c10.402,3.713,15.826,15.154,12.116,25.558
		c-30.077,84.296-97.796,139.853-195.835,160.663C281.924,409.572,250.814,411.508,226.574,411.508z"/>
	<path style="fill:#FF0C38;" d="M328.26,213.908c-1.048-0.453-25.954-11.336-49.879-34.207
		c-32.705-31.265-48.418-70.051-45.441-112.164c0.78-11.019,10.358-19.332,21.36-18.54c11.018,0.779,19.319,10.342,18.54,21.36
		c-2.115,29.901,8.76,56.683,32.322,79.602c18.751,18.239,38.794,27.155,38.993,27.242c10.091,4.429,15.567,16.609,10.331,26.305
		C346.907,217.545,330.838,215.019,328.26,213.908z"/>
</g>
<g>
	<path style="fill:#A5001E;" d="M137.688,260.216c-0.7,0.952-12.249,16.007-41.219,20.239c6.901,8.181,13.266,16.961,19.083,26.332
		c1.906,3.07,3.677,6.097,5.332,9.066c33.95-10.383,48.725-31.449,49.707-32.901l-33.121-22.423
		C137.471,260.528,137.539,260.417,137.688,260.216z"/>
	<path style="fill:#A5001E;" d="M134.981,174.816c-11.3-9.353-23.805-18.391-37.656-26.788c0.094,30.503-13.435,54.273-13.764,54.84
		c-5.608,9.472-2.507,21.704,6.952,27.356c3.213,1.921,18.567,8.48,27.426-6.909C118.737,221.928,129.958,202.76,134.981,174.816z"
		/>
</g>
<path style="fill:#FF0C38;" d="M191.435,375.503c-9.353,0-17.706-6.593-19.595-16.108l0,0c-0.064-0.317-6.646-32.075-29.653-69.141
	c-30.389-48.956-73.762-83.786-128.92-103.522c-10.4-3.721-15.813-15.169-12.093-25.569c3.721-10.398,15.167-15.815,25.569-12.093
	c80.329,28.744,126.112,82.006,150.375,121.626c26.329,42.995,33.665,79.431,33.964,80.961c2.121,10.84-4.947,21.347-15.786,23.468
	C194.001,375.381,192.708,375.503,191.435,375.503z"/>
<g>
	<path style="fill:#D80027;" d="M180.145,275.763c-10.031,12.69-18.31,25.36-25.131,37.748
		c12.744,26.183,16.776,45.638,16.826,45.886c1.889,9.514,10.242,16.108,19.595,16.108c1.274,0,2.566-0.122,3.863-0.376
		c10.84-2.121,17.907-12.629,15.786-23.468C210.797,350.19,204.008,316.517,180.145,275.763z"/>
	<path style="fill:#D80027;" d="M240.668,371.219c-33.625,1.117-57.067-2.147-57.436-2.201c-10.924-1.574-21.063,5.978-22.66,16.899
		c-1.599,10.93,5.966,21.084,16.896,22.682c1.427,0.209,20.478,2.907,49.106,2.907c0.533,0,1.087-0.006,1.626-0.008
		c0.165-1.061,0.339-2.13,0.533-3.212C231.03,395.48,235.017,383.114,240.668,371.219z"/>
	<path style="fill:#D80027;" d="M354.487,203.508c5.237-9.697-0.239-21.876-10.331-26.305c-0.2-0.087-19.982-8.891-38.627-26.89
		c-7.311,10.98-15.611,21.49-24.896,31.507c23.21,21.426,46.61,31.65,47.625,32.089
		C330.838,215.019,346.907,217.545,354.487,203.508z"/>
</g>
<path style="fill:#FF3F62;" d="M160.682,478.523c-0.423-1.397-10.269-34.735-2.582-80.497
	c6.993-41.626,30.322-102.437,101.754-155.76C377.951,154.108,373.888,41.013,373.833,39.88
	c-0.535-11.032,7.977-20.408,19.009-20.944c11.068-0.529,20.41,7.977,20.944,19.009c0.069,1.418,1.505,35.271-14.029,81.232
	c-14.137,41.834-45.735,102.709-115.975,155.142c-48.161,35.953-77.064,79.164-85.904,128.43
	c-6.636,36.991,1.039,64.009,1.117,64.279c3.202,10.571-2.85,21.491-13.36,24.887C171.756,496.402,163.301,487.173,160.682,478.523z
	"/>
<g>
	<path style="fill:#FF7B9E;" d="M408.891,72.278c-17.497,0-31.681,14.184-31.681,31.681c0,12.48,7.219,23.271,17.707,28.435
		c1.802-4.578,3.416-8.998,4.841-13.217c6.023-17.822,9.488-33.809,11.477-46.804C410.46,72.317,409.679,72.278,408.891,72.278z"/>
	<path style="fill:#FF7B9E;" d="M214.073,284.077c5.208,3.756,11.597,5.977,18.509,5.977c17.497,0,31.681-14.185,31.681-31.681
		c0-5.884-1.609-11.389-4.404-16.11c-0.002,0.001-0.004,0.003-0.006,0.005C241.64,255.864,226.56,269.948,214.073,284.077z"/>
	<path style="fill:#FF7B9E;" d="M155.855,449.538c14.196-3.137,24.818-15.788,24.818-30.927c0-13.691-8.685-25.352-20.846-29.779
		c-0.662,3.098-1.236,6.116-1.727,9.034C154.706,418.076,154.733,435.856,155.855,449.538z"/>
</g>
<g>
	<path style="fill:#FF557A;" d="M493.338,280.431c-3.974-1.794-8.379-2.801-13.022-2.801c-17.497,0-31.681,14.185-31.681,31.681
		c0,7.829,2.845,14.989,7.551,20.518C470.672,315.193,483.084,298.691,493.338,280.431z"/>
	<path style="fill:#FF557A;" d="M291.82,366.227c-22.813,3.799-44.242,5.077-61.94,5.214c3.789,13.255,15.985,22.962,30.457,22.962
		C276.648,394.402,290.075,382.074,291.82,366.227z"/>
</g>
<g>
	<path style="fill:#FF3F62;" d="M113.7,317.795c-4.739-11.526-16.069-19.646-29.305-19.646c-13.881,0-25.67,8.932-29.952,21.36
		c0,0.016,0.001,0.03,0.001,0.045c9.394,1.38,18.147,2.001,26.273,2.001C93.135,321.554,104.081,320.108,113.7,317.795z"/>
	<path style="fill:#FF3F62;" d="M382.167,249.971c-17.497,0-31.681,14.184-31.681,31.681c0,13.226,8.107,24.554,19.621,29.299
		c2.062-15.286,8.557-34.82,23.612-58.798C390.139,250.75,386.246,249.971,382.167,249.971z"/>
	<path style="fill:#FF3F62;" d="M113.731,138.34c0,14.213,9.359,26.239,22.25,30.254c2.401-17.371,2.167-37.627-4.19-58.862
		C121.112,114.824,113.731,125.718,113.731,138.34z"/>
	<path style="fill:#FF3F62;" d="M410.544,452.303c8.769,0,18.083-0.783,27.912-2.53c-4.443-12.129-16.06-20.798-29.728-20.798
		c-13.339,0-24.731,8.257-29.401,19.928C388.815,451.015,399.225,452.303,410.544,452.303z"/>
</g>
<g>
	<path style="fill:#FF557A;" d="M31.682,169.696c-10.398,0-19.624,5.009-25.401,12.746c1.951,1.843,4.298,3.33,6.987,4.291
		c17.495,6.26,33.8,14.044,48.886,23.311c0.783-2.755,1.21-5.66,1.21-8.666C63.364,183.88,49.18,169.696,31.682,169.696z"/>
	<path style="fill:#FF557A;" d="M177.12,270.698c-8.621-14.077-19.976-29.877-34.615-45.687c-3.23,4.964-5.114,10.886-5.114,17.25
		c0,17.497,14.184,31.681,31.681,31.681c3.194,0,6.277-0.478,9.184-1.357C177.877,271.957,177.507,271.331,177.12,270.698z"/>
	<path style="fill:#FF557A;" d="M264.265,110.255c0-17.493-14.178-31.675-31.67-31.681c0.152,21.07,5.079,41.189,14.57,59.805
		C257.323,133.101,264.265,122.492,264.265,110.255z"/>
</g>
<g>
</g>
<g>
</g>
<g>
</g>
<g>
</g>
<g>
</g>
<g>
</g>
<g>
</g>
<g>
</g>
<g>
</g>
<g>
</g>
<g>
</g>
<g>
</g>
<g>
</g>
<g>
</g>
<g>
</g>
</svg>
