<?xml version="1.0" encoding="iso-8859-1"?>
<!-- Generator: Adobe Illustrator 19.0.0, SVG Export Plug-In . SVG Version: 6.00 Build 0)  -->
<svg version="1.1" id="Layer_1" xmlns="http://www.w3.org/2000/svg" xmlns:xlink="http://www.w3.org/1999/xlink" x="0px" y="0px"
	 viewBox="0 0 511.999 511.999" style="enable-background:new 0 0 511.999 511.999;" xml:space="preserve">
<g>
	<path style="fill:#79AB03;" d="M16.651,433.49H8.987c-4.328,0-7.837-3.509-7.837-7.837c0-4.328,3.509-7.837,7.837-7.837h7.662
		c4.328,0,7.837,3.509,7.837,7.837C24.486,429.982,20.979,433.49,16.651,433.49z"/>
	<path style="fill:#79AB03;" d="M495.346,433.49h7.662c4.328,0,7.837-3.509,7.837-7.837c0-4.328-3.509-7.837-7.837-7.837h-7.662
		c-4.328,0-7.837,3.509-7.837,7.837C487.509,429.982,491.018,433.49,495.346,433.49z"/>
</g>
<path style="fill:#85BB04;" d="M501.009,288.353c-13.712-12.455-34.924-11.437-47.38,2.276
	c-19.426,21.386-23.663,39.255-26.756,52.301c-2.294,9.675-3.341,14.089-11.139,22.674c-7.797,8.584-12.092,10.049-21.501,13.26
	c-12.69,4.33-30.07,10.26-49.495,31.645c-7.451,8.203-12.662,15.887-16.437,22.981h141.967c4.328,0,7.837-3.509,7.837-7.837
	c0-4.328-3.509-7.837-7.837-7.837h-11.847c2.289-2.161,4.613-4.515,6.968-7.108c19.426-21.385,23.663-39.254,26.756-52.301
	c2.294-9.675,3.342-14.089,11.139-22.674C515.74,322.021,514.721,300.808,501.009,288.353z"/>
<path style="fill:#79AB03;" d="M480.1,310.83c-19.426,21.386-23.663,39.255-26.756,52.301c-2.294,9.675-3.341,14.089-11.139,22.674
	c-7.797,8.584-12.092,10.049-21.501,13.26c-12.69,4.33-30.07,10.26-49.495,31.645c-0.848,0.934-1.659,1.86-2.451,2.779h-40.456
	c3.774-7.095,8.985-14.778,16.437-22.981c19.425-21.385,36.804-27.315,49.495-31.645c9.409-3.21,13.704-4.675,21.501-13.26
	c7.798-8.585,8.845-13.001,11.139-22.674c3.094-13.047,7.331-30.915,26.756-52.301c12.455-13.713,33.668-14.732,47.38-2.276
	c3.73,3.389,6.514,7.428,8.35,11.785C498.818,298.743,487.79,302.363,480.1,310.83z"/>
<path style="fill:#9CDD05;" d="M455.546,257.79c0.375,13.403,0.889,31.761-12.364,57.431
	c-13.253,25.671-28.516,35.882-39.661,43.338c-8.263,5.527-12.035,8.051-17.355,18.356c-5.321,10.306-5.194,14.842-4.915,24.781
	c0.236,8.439,0.523,18.842-2.6,31.795h-72.302c0.948-1.479,1.91-3.163,2.929-5.138c5.321-10.306,5.193-14.842,4.915-24.781
	c-0.375-13.404-0.889-31.761,12.364-57.432c13.252-25.671,28.516-35.882,39.661-43.338c8.263-5.528,12.034-8.051,17.355-18.356
	c5.321-10.306,5.193-14.842,4.915-24.78c-0.375-13.404-0.889-31.761,12.364-57.433c8.498-16.459,28.729-22.915,45.191-14.416
	c16.46,8.498,22.915,28.731,14.416,45.191C455.14,243.315,455.267,247.851,455.546,257.79z"/>
<g>
	<path style="fill:#85BB04;" d="M427.64,218.954c-13.253,25.671-12.74,44.029-12.364,57.433c0.278,9.938,0.405,14.474-4.915,24.78
		c-5.321,10.305-9.092,12.828-17.355,18.356c-11.145,7.455-26.409,17.666-39.661,43.338c-13.253,25.671-12.74,44.028-12.364,57.432
		c0.15,5.396,0.25,9.2-0.536,13.199h-34.096c0.948-1.479,1.91-3.163,2.929-5.138c5.321-10.306,5.193-14.842,4.915-24.781
		c-0.375-13.404-0.889-31.761,12.364-57.432c13.252-25.671,28.516-35.882,39.661-43.338c8.263-5.528,12.034-8.051,17.355-18.356
		c5.321-10.305,5.193-14.842,4.915-24.78c-0.375-13.404-0.889-31.761,12.364-57.433c8.498-16.459,28.729-22.915,45.191-14.416
		c5.938,3.066,10.565,7.662,13.666,13.055C446.783,200.005,433.963,206.707,427.64,218.954z"/>
	<path style="fill:#85BB04;" d="M167.259,410.509c-19.425-21.385-36.804-27.315-49.495-31.645
		c-9.409-3.21-13.704-4.675-21.501-13.26c-7.798-8.585-8.845-13.001-11.139-22.674c-3.094-13.047-7.331-30.915-26.756-52.301
		c-12.455-13.713-33.668-14.732-47.38-2.276c-13.712,12.455-14.731,33.668-2.276,47.38c7.798,8.585,8.845,13.001,11.139,22.674
		c3.094,13.048,7.331,30.916,26.756,52.301c2.355,2.592,4.678,4.948,6.968,7.108H41.728c-4.328,0-7.837,3.509-7.837,7.837
		s3.509,7.837,7.837,7.837h141.967C179.921,426.396,174.71,418.712,167.259,410.509z"/>
</g>
<path style="fill:#79AB03;" d="M31.897,310.83c19.426,21.386,23.663,39.255,26.756,52.301c2.294,9.675,3.341,14.089,11.139,22.674
	c7.797,8.584,12.092,10.049,21.501,13.26c12.69,4.33,30.07,10.26,49.495,31.645c0.848,0.934,1.659,1.86,2.451,2.779h40.456
	c-3.774-7.095-8.985-14.778-16.437-22.981c-19.425-21.385-36.804-27.315-49.495-31.645c-9.409-3.21-13.704-4.675-21.501-13.26
	c-7.798-8.585-8.845-13.001-11.139-22.674c-3.094-13.047-7.331-30.915-26.756-52.301c-12.455-13.713-33.668-14.732-47.38-2.276
	c-3.73,3.389-6.514,7.428-8.35,11.785C13.179,298.743,24.206,302.363,31.897,310.83z"/>
<path style="fill:#9CDD05;" d="M56.451,257.79c-0.375,13.403-0.889,31.761,12.364,57.431c13.253,25.671,28.516,35.882,39.661,43.338
	c8.263,5.527,12.035,8.051,17.355,18.356c5.321,10.306,5.194,14.842,4.915,24.781c-0.236,8.439-0.523,18.842,2.6,31.795h72.302
	c-0.948-1.479-1.91-3.163-2.929-5.138c-5.321-10.306-5.193-14.842-4.915-24.781c0.375-13.404,0.889-31.761-12.364-57.432
	c-13.252-25.671-28.516-35.882-39.661-43.338c-8.263-5.528-12.034-8.051-17.355-18.356c-5.321-10.306-5.193-14.842-4.915-24.78
	c0.375-13.404,0.889-31.761-12.364-57.433c-8.498-16.459-28.729-22.915-45.191-14.416c-16.46,8.498-22.915,28.731-14.416,45.191
	C56.856,243.315,56.73,247.851,56.451,257.79z"/>
<path style="fill:#85BB04;" d="M84.356,218.954c13.253,25.671,12.74,44.029,12.364,57.433c-0.278,9.938-0.405,14.474,4.915,24.78
	c5.321,10.305,9.092,12.828,17.355,18.356c11.145,7.455,26.409,17.666,39.661,43.338c13.253,25.671,12.74,44.028,12.364,57.432
	c-0.15,5.396-0.25,9.2,0.536,13.199h34.096c-0.948-1.479-1.91-3.163-2.929-5.138c-5.321-10.306-5.193-14.842-4.915-24.781
	c0.375-13.404,0.889-31.761-12.364-57.432c-13.252-25.671-28.516-35.882-39.661-43.338c-8.263-5.528-12.034-8.051-17.355-18.356
	c-5.321-10.305-5.193-14.842-4.915-24.78c0.375-13.404,0.889-31.761-12.364-57.433c-8.498-16.459-28.729-22.915-45.191-14.416
	c-5.938,3.066-10.565,7.662-13.666,13.055C65.213,200.005,78.033,206.707,84.356,218.954z"/>
<path style="fill:#B2FA09;" d="M158.35,291.29c6.643,7.396,9.676,10.772,12.288,22.071c2.613,11.3,1.37,15.665-1.352,25.227
	c-3.672,12.896-8.7,30.559-2.192,58.708c3.737,16.16,9.373,27.54,15.191,36.195h82.645c-6.334-13.805-14.04-22.387-20.188-29.232
	c-6.643-7.397-9.676-10.774-12.289-22.075s-1.37-15.665,1.352-25.227c3.672-12.896,8.7-30.558,2.192-58.707
	c-6.508-28.148-18.779-41.811-27.739-51.786c-6.643-7.396-9.676-10.772-12.288-22.07c-2.613-11.3-1.37-15.664,1.353-25.226
	c3.672-12.896,8.7-30.559,2.192-58.707c-4.173-18.049-22.188-29.295-40.235-25.124c-18.049,4.173-29.296,22.186-25.124,40.235
	c2.613,11.3,1.37,15.664-1.352,25.226c-3.673,12.896-8.701,30.559-2.193,58.707C137.119,267.653,149.39,281.315,158.35,291.29z"/>
<path style="fill:#9CDD05;" d="M244.74,404.258c-6.643-7.397-9.676-10.774-12.289-22.075c-2.612-11.301-1.37-15.665,1.352-25.227
	c3.672-12.896,8.7-30.558,2.192-58.707c-6.508-28.148-18.779-41.811-27.739-51.786c-6.643-7.396-9.676-10.772-12.288-22.07
	c-2.612-11.3-1.37-15.664,1.353-25.226c3.672-12.896,8.7-30.559,2.192-58.708c-4.173-18.049-22.188-29.295-40.235-25.124
	c-3.165,0.731-6.115,1.896-8.815,3.405c7.964,4.456,14.092,12.127,16.309,21.718c6.508,28.148,1.48,45.81-2.192,58.708
	c-2.723,9.562-3.965,13.926-1.353,25.226c2.612,11.298,5.645,14.675,12.288,22.07c8.96,9.976,21.231,23.638,27.739,51.786
	c6.508,28.148,1.48,45.81-2.192,58.707c-2.723,9.563-3.965,13.926-1.352,25.227c2.612,11.301,5.645,14.677,12.289,22.075
	c6.148,6.845,13.854,15.427,20.188,29.232h32.74C258.595,419.685,250.889,411.103,244.74,404.258z"/>
<path style="fill:#B2FA09;" d="M353.646,291.29c-6.643,7.396-9.676,10.772-12.288,22.071c-2.612,11.3-1.37,15.665,1.352,25.227
	c3.672,12.896,8.7,30.559,2.192,58.708c-3.737,16.16-9.373,27.54-15.191,36.195h-82.645c6.334-13.805,14.04-22.387,20.188-29.232
	c6.643-7.397,9.676-10.774,12.289-22.075c2.613-11.301,1.37-15.665-1.352-25.227c-3.672-12.896-8.7-30.558-2.192-58.707
	s18.779-41.811,27.739-51.786c6.643-7.396,9.676-10.772,12.288-22.07c2.613-11.3,1.37-15.664-1.353-25.226
	c-3.672-12.896-8.7-30.559-2.192-58.707c4.173-18.049,22.188-29.295,40.235-25.124c18.049,4.173,29.296,22.186,25.124,40.235
	c-2.612,11.3-1.37,15.664,1.352,25.226c3.673,12.896,8.701,30.559,2.193,58.707C374.877,267.653,362.606,281.315,353.646,291.29z"/>
<path style="fill:#9CDD05;" d="M267.256,404.258c6.643-7.397,9.676-10.774,12.289-22.075c2.612-11.301,1.37-15.665-1.352-25.227
	c-3.672-12.896-8.7-30.558-2.192-58.707c6.508-28.148,18.779-41.811,27.739-51.786c6.643-7.396,9.676-10.772,12.288-22.07
	c2.612-11.3,1.37-15.664-1.353-25.226c-3.672-12.896-8.7-30.559-2.192-58.708c4.173-18.049,22.188-29.295,40.235-25.124
	c3.165,0.731,6.115,1.896,8.815,3.405c-7.964,4.456-14.091,12.127-16.309,21.718c-6.508,28.148-1.48,45.81,2.192,58.708
	c2.723,9.562,3.965,13.926,1.353,25.226c-2.612,11.298-5.645,14.675-12.288,22.07c-8.96,9.976-21.231,23.638-27.739,51.786
	c-6.508,28.148-1.48,45.81,2.192,58.707c2.723,9.563,3.965,13.926,1.352,25.227c-2.612,11.301-5.645,14.677-12.289,22.075
	c-6.148,6.845-13.854,15.427-20.188,29.232h-32.74C253.402,419.685,261.108,411.103,267.256,404.258z"/>
<path style="fill:#C2FB3B;" d="M212.385,354.979c0,28.891,8.877,44.967,15.36,56.706c4.447,8.053,6.654,12.068,6.96,21.806h67.1
	c-0.489-27.344-9.042-42.837-15.336-54.235c-4.807-8.704-7.001-12.677-7.001-24.275c0-11.598,2.193-15.571,7.001-24.274
	c6.483-11.737,15.361-27.813,15.361-56.705c0-28.89-8.879-44.965-15.361-56.703c-4.807-8.703-7.001-12.675-7.001-24.272
	c0-11.598,2.193-15.57,7.001-24.273c6.483-11.737,15.361-27.813,15.361-56.705c0-18.524-15.017-33.541-33.541-33.541
	c-18.524,0-33.541,15.017-33.541,33.541c0,11.597-2.193,15.57-7.001,24.273c-6.483,11.737-15.361,27.813-15.361,56.705
	c0,28.89,8.878,44.966,15.361,56.703c4.807,8.703,7.001,12.675,7.001,24.271c0,11.598-2.193,15.571-7.001,24.274
	C221.263,310.013,212.385,326.087,212.385,354.979z"/>
<path style="fill:#B2FA09;" d="M262.227,411.68c-6.483-11.737-15.36-27.814-15.36-56.706c0-28.891,8.877-44.966,15.361-56.704
	c4.807-8.703,7.001-12.676,7.001-24.274c0-11.596-2.193-15.569-7.001-24.271c-6.483-11.737-15.361-27.813-15.361-56.703
	c0-28.891,8.878-44.966,15.361-56.705c4.807-8.703,7.001-12.676,7.001-24.273c0-12.218,6.535-22.906,16.297-28.77
	c-5.038-3.025-10.934-4.767-17.238-4.767c-18.524,0-33.541,15.017-33.541,33.541c0,11.597-2.193,15.57-7.001,24.273
	c-6.483,11.737-15.361,27.813-15.361,56.705c0,28.89,8.878,44.966,15.361,56.703c4.807,8.703,7.001,12.675,7.001,24.271
	c0,11.598-2.193,15.571-7.001,24.274c-6.483,11.738-15.361,27.813-15.361,56.705s8.877,44.967,15.36,56.706
	c4.447,8.053,6.654,12.068,6.96,21.806l34.482-0.003C268.881,423.748,266.674,419.733,262.227,411.68z"/>
<g>
</g>
<g>
</g>
<g>
</g>
<g>
</g>
<g>
</g>
<g>
</g>
<g>
</g>
<g>
</g>
<g>
</g>
<g>
</g>
<g>
</g>
<g>
</g>
<g>
</g>
<g>
</g>
<g>
</g>
</svg>
