<?xml version="1.0" encoding="UTF-8"?>
<svg width="352px" height="634px" viewBox="0 0 352 634" version="1.1" xmlns="http://www.w3.org/2000/svg" xmlns:xlink="http://www.w3.org/1999/xlink">
    <!-- Generator: Sketch 51.1 (57501) - http://www.bohemiancoding.com/sketch -->
    <title>Group 120</title>
    <desc>Created with Sketch.</desc>
    <defs>
        <path d="M29.92,25.169 C29.92,25.169 -1.809,64.275 1.034,114.322 C3.958,165.776 38.315,190.061 38.315,190.061 C38.315,190.061 40.601,186.926 43.149,181.957 C45.265,177.832 44.43,172.287 44.43,172.287 C44.43,172.287 24.472,157.287 23.645,119.727 C22.907,86.425 34.555,76.99 34.555,76.99 L45.265,166.757 C45.265,166.757 56.798,188.789 119.564,187.448 C176.972,186.224 185.922,163.55 185.922,163.55 L192.035,69.932 C220.558,117.05 185.677,167.148 185.677,167.148 L195.467,178.879 C195.467,178.879 220.294,157.906 223.421,112.334 C227.683,50.234 198.755,20.831 195.446,17.683 L196.345,3.908 C165.055,37.845 121.611,46.64 121.611,46.64 C60.184,37.542 27.32,0.618 27.32,0.618 L29.92,25.169 Z M195.425,17.663 C195.433,17.67 195.436,17.673 195.443,17.68 C195.437,17.674 195.431,17.669 195.425,17.663 Z" id="path-1"></path>
        <polygon id="path-3" points="0.0914683303 0.93774693 45.39891 0.93774693 45.39891 35 0.0914683303 35"></polygon>
        <polygon id="path-5" points="0.720507366 0.245 203.76047 0.245 203.76047 155.559565 0.720507366 155.559565"></polygon>
    </defs>
    <g id="Page-1" stroke="none" stroke-width="1" fill="none" fill-rule="evenodd">
        <g id="Zalba---Início" transform="translate(-117.000000, -83.000000)">
            <g id="Group-120" transform="translate(117.000000, 82.000000)">
                <g id="Group-9" transform="translate(62.000000, 314.755000)">
                    <path d="M171.4759,248.7841 C171.4759,248.7841 168.8919,281.1641 175.3159,284.4031 C181.7369,287.6421 174.6759,292.9341 174.0359,292.9341 C173.3949,292.9341 164.0099,291.0151 163.3719,291.0151 C162.7319,291.0151 158.6779,285.9371 158.6779,285.9371 C158.6779,285.9371 159.3699,265.8461 154.3309,253.0511 C149.2949,240.2521 160.1719,243.0251 160.8129,243.4521 C161.4509,243.8791 171.6899,247.0781 171.6899,247.0781 L171.4759,248.7841 Z" id="Fill-1" fill="#BC8861"></path>
                    <path d="M64.1937,253.9042 C64.1937,253.9042 63.9797,288.2432 60.3537,292.9342 C56.7267,297.6282 65.8987,300.4012 65.8987,300.4012 L78.2627,289.7302 C78.2627,289.7302 77.6207,280.3522 80.3977,270.7532 C83.1747,261.1552 87.2277,252.1972 87.0147,249.2112 C86.8007,246.2242 81.2557,247.7182 79.3377,247.0782 C77.4167,246.4382 69.5257,248.3572 68.0337,248.5702 C66.5397,248.7842 64.1937,253.9042 64.1937,253.9042" id="Fill-3" fill="#BC8861"></path>
                    <path d="M195.4252,17.663 C195.4342,17.671 195.4372,17.674 195.4462,17.683 L196.3452,3.908 C165.0552,37.845 121.6112,46.641 121.6112,46.641 C60.1842,37.542 27.3202,0.618 27.3202,0.618 L29.9192,25.169 C29.9192,25.169 -1.8088,64.275 1.0342,114.322 C3.9582,165.776 38.3152,190.06 38.3152,190.06 C38.3152,190.06 40.6012,186.926 43.1492,181.957 C45.2652,177.832 44.4292,172.287 44.4292,172.287 C44.4292,172.287 24.4722,157.287 23.6452,119.726 C22.9062,86.425 34.5552,76.99 34.5552,76.99 L45.2652,166.757 C45.2652,166.757 56.7982,188.789 119.5642,187.448 C176.9722,186.224 185.9222,163.551 185.9222,163.551 L192.0342,69.933 C220.5582,117.05 185.6772,167.148 185.6772,167.148 L195.4672,178.879 C195.4672,178.879 220.2942,157.905 223.4202,112.334 C227.6922,50.101 198.6312,20.705 195.4252,17.663" id="Fill-5" fill="#CECECD"></path>
                    <path d="M195.4252,17.663 C195.4342,17.671 195.4372,17.674 195.4462,17.683 L196.3452,3.908 C165.0552,37.845 121.6112,46.641 121.6112,46.641 C60.1842,37.542 27.3202,0.618 27.3202,0.618 L29.9192,25.169 C29.9192,25.169 -1.8088,64.275 1.0342,114.322 C3.9582,165.776 38.3152,190.06 38.3152,190.06 C38.3152,190.06 40.6012,186.926 43.1492,181.957 C45.2652,177.832 44.4292,172.287 44.4292,172.287 C44.4292,172.287 24.4722,157.287 23.6452,119.726 C22.9062,86.425 34.5552,76.99 34.5552,76.99 L45.2652,166.757 C45.2652,166.757 56.7982,188.789 119.5642,187.448 C176.9722,186.224 185.9222,163.551 185.9222,163.551 L192.0342,69.933 C220.5582,117.05 185.6772,167.148 185.6772,167.148 L195.4672,178.879 C195.4672,178.879 220.2942,157.905 223.4202,112.334 C227.6922,50.101 198.6312,20.705 195.4252,17.663" id="Fill-7" fill="#DBDBDA"></path>
                </g>
                <g id="Group-17" transform="translate(62.000000, 314.755000)">
                    <mask id="mask-2" fill="white">
                        <use xlink:href="#path-1"></use>
                    </mask>
                    <g id="Clip-11"></g>
                    <polygon id="Fill-10" fill="#C23323" mask="url(#mask-2)" points="-29.019 28.644 253.303 28.644 253.303 14.213 -29.019 14.213"></polygon>
                    <polygon id="Fill-12" fill="#C23323" mask="url(#mask-2)" points="-29.019 58.314 253.303 58.314 253.303 43.884 -29.019 43.884"></polygon>
                    <polygon id="Fill-13" fill="#C23323" mask="url(#mask-2)" points="-29.019 87.985 253.303 87.985 253.303 73.554 -29.019 73.554"></polygon>
                    <polygon id="Fill-14" fill="#C23323" mask="url(#mask-2)" points="-29.019 117.655 253.303 117.655 253.303 103.225 -29.019 103.225"></polygon>
                    <polygon id="Fill-15" fill="#C23323" mask="url(#mask-2)" points="-29.019 147.326 253.303 147.326 253.303 132.895 -29.019 132.895"></polygon>
                    <polygon id="Fill-16" fill="#C23323" mask="url(#mask-2)" points="-29.019 176.996 253.303 176.996 253.303 162.566 -29.019 162.566"></polygon>
                </g>
                <g id="Group-29" transform="translate(97.000000, 477.755000)">
                    <path d="M149.2982,24.4482 C149.2982,24.4482 155.3182,19.8082 158.4322,13.4422 L150.6772,4.1482 L149.2982,24.4482 Z" id="Fill-18" fill="#BC8861"></path>
                    <g id="Group-22" transform="translate(0.000000, 122.000000)">
                        <mask id="mask-4" fill="white">
                            <use xlink:href="#path-3"></use>
                        </mask>
                        <g id="Clip-21"></g>
                        <path d="M20.5306,1.1952 C20.4376,0.7282 23.3036,0.5572 25.1156,3.7572 C26.9276,6.9542 27.5676,11.5412 32.8996,11.3272 C38.2316,11.1142 39.5116,6.6352 42.3916,5.1412 C45.2706,3.6502 45.4846,4.6082 45.3786,6.8472 C45.2706,9.0892 44.0966,9.6222 44.3106,13.8862 C44.5236,18.1532 44.8436,20.1782 43.1386,21.7772 C41.4306,23.3792 40.5486,22.6322 37.0966,24.1252 C33.6466,25.6172 26.3936,29.0302 21.4896,32.7632 C16.5846,36.4952 3.2526,35.9612 0.6936,28.0702 C-1.8654,20.1782 4.2136,16.1262 9.8646,14.9542 C15.5166,13.7802 21.5956,6.5292 20.5306,1.1952" id="Fill-20" fill="#9A6E5A" mask="url(#mask-4)"></path>
                    </g>
                    <path d="M144.2005,116.5693 C144.2915,116.1003 141.4255,115.9293 139.6135,119.1293 C137.8015,122.3283 137.1615,126.9133 131.8295,126.6993 C126.4975,126.4883 125.2175,122.0073 122.3375,120.5163 C119.4585,119.0213 119.2445,119.9823 119.3505,122.2213 C119.4585,124.4613 120.6325,124.9943 120.4185,129.2603 C120.2055,133.5253 119.8855,135.5523 121.5905,137.1513 C123.2985,138.7513 124.1805,138.0063 127.6315,139.4983 C131.0825,140.9923 138.3355,144.4023 143.2395,148.1353 C148.1445,151.8693 161.4755,151.3353 164.0355,143.4443 C166.5955,135.5523 160.5155,131.5003 154.8635,130.3263 C149.2115,129.1543 143.1335,121.9013 144.2005,116.5693" id="Fill-23" fill="#9A6E5A"></path>
                    <path d="M10.265,3.7568 C10.265,3.7568 24.82,25.0888 80.592,24.4478 C80.592,24.4478 132.965,26.0448 150.922,0.5508 L145.541,83.4388 C145.541,83.4388 133.914,90.1128 122.518,91.4718 C115.361,92.3248 108.857,90.3218 103.701,86.3528 C103.701,86.3528 104.886,62.4088 85.475,45.4528 C85.475,45.4528 66.732,61.8978 61.898,88.6298 C61.898,88.6298 43.132,101.9948 20.184,88.9118 L10.265,3.7568 Z" id="Fill-25" fill="#404041"></path>
                    <path d="M9.5785,11.1474 C9.5785,11.1474 16.5135,14.3134 19.3565,16.8734 C19.3565,16.8734 22.5565,29.7424 16.3705,37.6334 C16.3705,37.6334 8.2915,34.0264 4.1835,25.7894 C4.1835,25.7894 7.3065,20.7424 8.1485,18.9574 C9.6785,15.7184 9.5785,11.1474 9.5785,11.1474" id="Fill-27" fill="#BC8861"></path>
                </g>
                <g id="Group-117" transform="translate(0.000000, 0.755000)">
                    <path d="M262.1664,234.8622 C262.1664,252.4042 271.0624,266.6252 282.0384,266.6252 C293.0134,266.6252 301.9104,252.4042 301.9104,234.8622 C301.9104,217.3202 293.0134,203.0992 282.0384,203.0992 C271.0624,203.0992 262.1664,217.3202 262.1664,234.8622" id="Fill-30" fill="#BC8861"></path>
                    <path d="M90.1537,234.8622 C90.1537,252.4042 81.2567,266.6252 70.2807,266.6252 C59.3067,266.6252 50.4097,252.4042 50.4097,234.8622 C50.4097,217.3202 59.3067,203.0992 70.2807,203.0992 C81.2567,203.0992 90.1537,217.3202 90.1537,234.8622" id="Fill-32" fill="#BC8861"></path>
                    <path d="M262.1664,234.8622 C262.1664,252.4042 271.0624,266.6252 282.0384,266.6252 C293.0134,266.6252 301.9104,252.4042 301.9104,234.8622 C301.9104,217.3202 293.0134,203.0992 282.0384,203.0992 C271.0624,203.0992 262.1664,217.3202 262.1664,234.8622" id="Fill-34" fill="#000000"></path>
                    <path d="M90.1537,234.8622 C90.1537,252.4042 81.2567,266.6252 70.2807,266.6252 C59.3067,266.6252 50.4097,252.4042 50.4097,234.8622 C50.4097,217.3202 59.3067,203.0992 70.2807,203.0992 C81.2567,203.0992 90.1537,217.3202 90.1537,234.8622" id="Fill-36" fill="#000000"></path>
                    <path d="M285.8353,172.6879 C285.8353,241.7189 236.6213,297.6799 175.9133,297.6799 C115.2043,297.6799 65.9913,241.7189 65.9913,172.6879 C65.9913,103.6569 115.2043,47.6959 175.9133,47.6959 C236.6213,47.6959 285.8353,103.6569 285.8353,172.6879" id="Fill-38" fill="#BC8861"></path>
                    <path d="M284.0385,198.9003 C284.0385,258.6163 235.6295,307.0253 175.9135,307.0253 C116.1975,307.0253 67.7885,258.6163 67.7885,198.9003 C67.7885,139.1843 116.1975,90.7753 175.9135,90.7753 C235.6295,90.7753 284.0385,139.1843 284.0385,198.9003" id="Fill-40" fill="#BC8861"></path>
                    <path d="M284.0385,229.3261 C284.0385,305.8461 235.6295,367.8771 175.9135,367.8771 C116.1975,367.8771 67.7885,305.8461 67.7885,229.3261 C67.7885,152.8071 116.1975,90.7751 175.9135,90.7751 C235.6295,90.7751 284.0385,152.8071 284.0385,229.3261" id="Fill-42" fill="#BC8861"></path>
                    <path d="M58.2884,260.1054 C58.2884,264.7934 61.5344,268.5954 65.5384,268.5954 C69.5424,268.5954 72.7884,264.7934 72.7884,260.1054 C72.7884,255.4164 69.5424,251.6154 65.5384,251.6154 C61.5344,251.6154 58.2884,255.4164 58.2884,260.1054" id="Fill-44" fill="#757575"></path>
                    <path d="M134.7884,196.6249 C134.7884,202.0099 130.4234,206.3749 125.0384,206.3749 C119.6534,206.3749 115.2884,202.0099 115.2884,196.6249 C115.2884,191.2399 119.6534,186.8749 125.0384,186.8749 C130.4234,186.8749 134.7884,191.2399 134.7884,196.6249" id="Fill-46" fill="#000000"></path>
                    <path d="M61.3832,260.1054 C61.3832,263.0074 63.2432,265.3604 65.5382,265.3604 C67.8332,265.3604 69.6942,263.0074 69.6942,260.1054 C69.6942,257.2034 67.8332,254.8494 65.5382,254.8494 C63.2432,254.8494 61.3832,257.2034 61.3832,260.1054" id="Fill-48" fill="#000000"></path>
                    <path d="M294.0316,260.1054 C294.0316,264.7934 290.7856,268.5954 286.7816,268.5954 C282.7776,268.5954 279.5316,264.7934 279.5316,260.1054 C279.5316,255.4164 282.7776,251.6154 286.7816,251.6154 C290.7856,251.6154 294.0316,255.4164 294.0316,260.1054" id="Fill-50" fill="#757575"></path>
                    <path d="M290.9369,260.1054 C290.9369,263.0074 289.0769,265.3604 286.7819,265.3604 C284.4869,265.3604 282.6259,263.0074 282.6259,260.1054 C282.6259,257.2034 284.4869,254.8494 286.7819,254.8494 C289.0769,254.8494 290.9369,257.2034 290.9369,260.1054" id="Fill-52" fill="#000000"></path>
                    <path d="M216.2884,196.6249 C216.2884,202.0099 220.6534,206.3749 226.0384,206.3749 C231.4234,206.3749 235.7884,202.0099 235.7884,196.6249 C235.7884,191.2399 231.4234,186.8749 226.0384,186.8749 C220.6534,186.8749 216.2884,191.2399 216.2884,196.6249" id="Fill-54" fill="#000000"></path>
                    <path d="M90.4584,177.8466 C93.6604,171.9676 98.8984,167.4026 104.8674,164.1216 C107.8784,162.5066 111.1264,161.3016 114.4774,160.4186 C117.8484,159.6346 121.3164,159.1696 124.7914,159.1836 C125.6604,159.1556 126.5264,159.2256 127.3934,159.2806 C128.2574,159.3516 129.1274,159.3536 129.9854,159.4876 C131.7024,159.7556 133.4224,159.9786 135.0964,160.4426 C138.4514,161.2846 141.7124,162.4796 144.7114,164.1246 C150.6834,167.4036 155.9204,171.9716 159.1184,177.8466 L158.7084,178.2846 C156.3984,176.2036 153.8854,174.3546 151.2294,172.7496 C148.5894,171.1186 145.8114,169.7166 142.9294,168.5756 C140.0554,167.4146 137.0544,166.5906 134.0174,166.0136 C130.9814,165.4046 127.8804,165.1796 124.7934,165.1816 L122.4744,165.2146 C121.7014,165.2256 120.9334,165.3316 120.1624,165.3856 C118.6154,165.4686 117.0974,165.7796 115.5654,166.0006 C112.5324,166.6126 109.5454,167.4616 106.6564,168.5856 C103.7724,169.7226 100.9994,171.1376 98.3564,172.7626 C95.6984,174.3636 93.1804,176.2086 90.8684,178.2846 L90.4584,177.8466 Z" id="Fill-56" fill="#000000"></path>
                    <path d="M191.7084,177.5966 C194.9104,171.7176 200.1484,167.1526 206.1174,163.8716 C209.1284,162.2566 212.3764,161.0516 215.7274,160.1686 C219.0984,159.3846 222.5664,158.9196 226.0414,158.9336 C226.9104,158.9056 227.7764,158.9756 228.6434,159.0306 C229.5074,159.1016 230.3774,159.1036 231.2354,159.2376 C232.9524,159.5056 234.6724,159.7286 236.3464,160.1926 C239.7014,161.0346 242.9624,162.2296 245.9614,163.8746 C251.9334,167.1536 257.1704,171.7216 260.3684,177.5966 L259.9584,178.0346 C257.6484,175.9536 255.1354,174.1046 252.4794,172.4996 C249.8394,170.8686 247.0614,169.4666 244.1794,168.3256 C241.3054,167.1646 238.3044,166.3406 235.2674,165.7636 C232.2314,165.1546 229.1304,164.9296 226.0434,164.9316 L223.7244,164.9646 C222.9514,164.9756 222.1834,165.0816 221.4124,165.1356 C219.8654,165.2186 218.3474,165.5296 216.8154,165.7506 C213.7824,166.3626 210.7954,167.2116 207.9064,168.3356 C205.0224,169.4726 202.2494,170.8876 199.6064,172.5126 C196.9484,174.1136 194.4304,175.9586 192.1184,178.0346 L191.7084,177.5966 Z" id="Fill-58" fill="#000000"></path>
                    <path d="M232.7386,285.4824 C232.5516,286.6634 232.2446,287.8024 231.9426,288.9604 C231.6086,290.0984 231.2106,291.2114 230.8096,292.3384 C229.9876,294.5774 228.9596,296.7324 227.8166,298.8384 C225.5076,303.0334 222.6356,306.9614 219.3036,310.5174 C215.9616,314.0654 212.1236,317.1764 208.0036,319.9034 C203.8106,322.5064 199.3466,324.7334 194.6536,326.3214 C193.4966,326.7614 192.2956,327.0684 191.1026,327.3974 C189.9036,327.7024 188.7296,328.1014 187.5096,328.3204 C185.0716,328.7594 182.6496,329.2574 180.1776,329.4174 C175.2656,329.8504 170.3126,329.7724 165.4996,328.9774 C160.6856,328.2064 156.0026,326.8934 151.6066,324.9854 C147.2396,323.0174 143.0586,320.6814 139.5276,317.4674 L139.8546,316.7374 C143.9616,318.4924 148.2386,319.8384 152.5946,320.7854 C156.9426,321.7724 161.3726,322.3834 165.8196,322.5914 C170.2676,322.8324 174.7316,322.5534 179.1296,321.9234 C180.2246,321.7374 181.3356,321.6364 182.4186,321.3794 L185.6746,320.6674 C186.7606,320.4354 187.8136,320.0664 188.8846,319.7734 C189.9516,319.4614 191.0256,319.1744 192.0566,318.7564 L195.1926,317.6294 C196.2386,317.2534 197.2326,316.7514 198.2556,316.3174 C200.3186,315.4824 202.2376,314.3504 204.2156,313.3344 C208.0516,311.0864 211.7146,308.5394 215.1156,305.6624 C218.5036,302.7704 221.6116,299.5534 224.4436,296.1114 C227.3056,292.6934 229.8626,289.0084 232.0326,285.1064 L232.7386,285.4824 Z" id="Fill-60" fill="#000000" opacity="0.3"></path>
                    <path d="M122.763,192.1747 C122.763,193.4037 121.767,194.3997 120.538,194.3997 C119.309,194.3997 118.313,193.4037 118.313,192.1747 C118.313,190.9457 119.309,189.9497 120.538,189.9497 C121.767,189.9497 122.763,190.9457 122.763,192.1747" id="Fill-62" fill="#FFFFFF"></path>
                    <path d="M219.348,192.1747 C219.348,193.4037 220.344,194.3997 221.574,194.3997 C222.802,194.3997 223.798,193.4037 223.798,192.1747 C223.798,190.9457 222.802,189.9497 221.574,189.9497 C220.344,189.9497 219.348,190.9457 219.348,192.1747" id="Fill-64" fill="#FFFFFF"></path>
                    <path d="M193.7582,263.2665 C192.3022,266.5575 189.6112,269.1075 186.4872,270.9475 C184.9102,271.8535 183.1902,272.5275 181.4092,273.0225 C179.6162,273.4645 177.7652,273.7215 175.9112,273.7155 C172.2102,273.7295 168.4922,272.7475 165.3392,270.9435 C162.2142,269.1045 159.5222,266.5535 158.0692,263.2665 L158.3412,262.9735 C159.5422,264.0455 160.8492,264.9975 162.2282,265.8225 C163.5962,266.6635 165.0342,267.3885 166.5272,267.9755 C169.5112,269.1455 172.7142,269.7505 175.9102,269.7175 C177.5112,269.7415 179.1062,269.5685 180.6842,269.3005 C182.2532,268.9875 183.7992,268.5505 185.2952,267.9705 C186.7882,267.3845 188.2242,266.6545 189.5942,265.8165 C190.9742,264.9945 192.2822,264.0435 193.4852,262.9735 L193.7582,263.2665 Z" id="Fill-66" fill="#000000" opacity="0.15"></path>
                    <path d="M184.6849,335.871 C183.4509,336.802 182.0059,337.444 180.5129,337.845 C179.0179,338.267 177.4629,338.436 175.9139,338.454 C174.3649,338.436 172.8069,338.273 171.3159,337.834 C170.5719,337.613 169.8389,337.364 169.1299,337.059 C168.4389,336.703 167.7459,336.362 167.1419,335.871 L167.1849,335.78 C168.5439,336.396 169.9939,336.802 171.4599,337.072 C172.9279,337.34 174.4209,337.467 175.9139,337.454 C177.4049,337.46 178.8979,337.342 180.3659,337.07 C181.8309,336.796 183.2819,336.395 184.6419,335.78 L184.6849,335.871 Z" id="Fill-68" fill="#000000" opacity="0.15"></path>
                    <path d="M298.433,97.1196 C297.733,106.5006 296.867,116.0546 295.817,125.7696 C292.079,160.3516 286.479,192.6956 279.769,222.6216 C282.408,206.6796 284.144,185.3496 281.102,160.6216 C279.349,146.3696 276.358,133.8356 273.102,123.2886 C276.454,120.9426 280.082,118.0846 283.769,114.6216 C290.26,108.5236 295.012,102.3526 298.433,97.1196" id="Fill-70" fill="#000000"></path>
                    <path d="M299.8705,52.2001 C299.8705,52.2001 300.8545,63.3751 294.9545,74.0641 C294.9545,74.0641 297.4135,4.5861 238.4085,0.6981 C238.4085,0.6981 253.1595,12.3591 249.7175,26.9351 C248.5175,32.0131 244.7075,35.2201 239.5585,36.8711 C239.2575,28.1891 236.0085,13.3251 218.9765,3.3141 C218.9765,3.3141 227.0415,21.3071 213.7745,35.3941 C213.5555,35.3211 213.3325,35.2601 213.1135,35.1831 C213.0715,35.1681 212.9985,35.1321 212.9505,35.1141 C211.6155,27.8821 206.7145,8.6541 191.7255,3.3141 C191.7255,3.3141 200.1805,15.5891 191.9605,25.2741 C186.1565,23.0611 179.5995,21.0851 172.7655,20.1331 C135.1455,14.8891 81.6055,19.8721 66.1475,73.5781 C59.2715,82.6011 46.5765,101.9551 43.7685,129.2881 C38.8345,177.3321 68.4215,211.3461 73.7685,217.2891 C71.6075,212.6331 59.3455,185.0471 72.1425,155.2361 C80.0355,136.8471 93.5535,126.7181 99.7475,122.6501 C99.7475,122.6501 106.6325,112.9331 126.7915,115.8471 C146.9515,118.7641 171.5365,160.0631 230.5415,155.6891 C289.5445,151.3171 311.1805,82.3241 299.8705,52.2001" id="Fill-72" fill="#000000"></path>
                    <path d="M101.5043,82.1508 C101.5043,82.1508 101.9903,81.5548 102.8423,80.5108 C103.7253,79.4948 104.9323,77.9768 106.5533,76.3178 C108.1463,74.6298 110.0773,72.7158 112.2913,70.8218 C114.5053,68.9278 117.0103,67.0808 119.5823,65.3288 C122.2033,63.6518 124.9003,62.0848 127.5433,60.8488 C130.1813,59.6018 132.7473,58.6718 134.9553,57.9378 C137.1503,57.1668 139.0823,56.8188 140.3963,56.5028 C141.7333,56.2628 142.4983,56.1258 142.4983,56.1258 C142.4983,56.1258 141.8173,56.4958 140.6263,57.1448 C139.4133,57.7238 137.7513,58.7138 135.7223,59.7518 C133.6753,60.7608 131.3963,62.1408 128.9083,63.4878 C126.4553,64.9048 123.8313,66.3898 121.2613,67.9718 C118.6763,69.5318 116.1563,71.1988 113.8003,72.7908 C111.4833,74.4308 109.2663,75.9188 107.4683,77.3368 C105.6553,78.7328 104.1243,79.8988 103.1213,80.7878 C102.0923,81.6558 101.5043,82.1508 101.5043,82.1508" id="Fill-74" fill="#3B4D57"></path>
                    <path d="M102.7543,73.8915 C102.7543,73.8915 102.9553,73.6425 103.3343,73.1755 C103.7193,72.7135 104.2423,71.9965 104.9943,71.1575 C106.4723,69.4605 108.6763,67.0685 111.7103,64.6125 C114.7663,62.2025 118.5313,59.5735 122.9073,57.3535 C127.2703,55.1075 132.2133,53.3305 137.2433,51.9355 C142.2943,50.6335 147.4233,49.7025 152.2543,49.1995 C157.0823,48.6675 161.6093,48.5985 165.4683,48.5195 C169.3293,48.4485 172.5513,48.6605 174.7983,48.7045 C177.0493,48.8185 178.3343,48.8835 178.3343,48.8835 C178.3343,48.8835 177.0623,49.0765 174.8343,49.4125 C172.6043,49.6855 169.4263,50.2255 165.6183,50.6825 C161.8093,51.1395 157.3923,51.8215 152.6923,52.5315 C147.9963,53.2745 143.0173,54.1435 138.1383,55.3955 C133.2473,56.5785 128.4833,58.2015 124.1163,59.9815 C119.7603,61.7795 115.8043,63.7875 112.6293,65.8775 C109.4413,67.9425 106.9163,69.9125 105.2893,71.4455 C104.4323,72.1695 103.8353,72.8185 103.4033,73.2365 C102.9803,73.6635 102.7543,73.8915 102.7543,73.8915" id="Fill-76" fill="#3B4D57"></path>
                    <path d="M102.1742,65.1328 C102.1742,65.1328 102.4612,64.6228 102.9632,63.7308 C103.4962,62.8598 104.2272,61.5658 105.3242,60.1768 C106.3962,58.7678 107.7212,57.1598 109.3082,55.5818 C110.9062,54.0158 112.8162,52.5688 114.7932,51.2238 C116.8252,49.9658 118.9432,48.8328 121.0362,48.0308 C123.1262,47.2208 125.1692,46.7348 126.9162,46.3958 C128.6532,46.0118 130.1602,45.9968 131.1842,45.9248 L132.8102,45.9248 C132.8102,45.9248 132.2622,46.1408 131.3022,46.5168 C130.3362,46.8308 129.0052,47.4438 127.4172,48.0788 C125.8112,48.6768 124.0522,49.6398 122.1452,50.5328 C120.2692,51.5088 118.2812,52.5538 116.3622,53.7268 C114.4302,54.8798 112.5912,56.1778 110.8592,57.4118 C109.1702,58.6908 107.5362,59.8718 106.3022,61.0708 C105.0342,62.2318 103.9642,63.2208 103.2842,63.9738 C102.5782,64.7118 102.1742,65.1328 102.1742,65.1328" id="Fill-78" fill="#3B4D57"></path>
                    <path d="M70.7518,93.7934 C70.7518,93.7934 70.2338,93.6764 69.3468,93.7364 C68.4618,93.7074 67.2498,94.1004 65.9448,94.6244 C64.6278,95.1834 63.2618,96.1404 61.8908,97.2414 C60.5528,98.3714 59.1418,99.6854 57.9018,101.1034 C56.5958,102.4774 55.5048,104.0204 54.4768,105.4824 C53.4978,106.9684 52.5758,108.4174 52.0118,109.7804 C51.4558,111.1344 50.9408,112.3114 50.7068,113.1774 C50.4398,114.0504 50.2868,114.5494 50.2868,114.5494 C50.2868,114.5494 50.1868,114.0294 50.0118,113.1174 C49.9598,112.2074 49.7528,110.8374 50.0038,109.2304 C50.2598,107.6404 50.6158,105.7234 51.4738,103.8454 C52.2848,101.9444 53.5748,100.1344 55.0148,98.4804 C56.5188,96.8714 58.2048,95.4694 60.0588,94.4784 C61.8728,93.4414 63.8268,92.9464 65.4798,92.7524 C67.1588,92.5464 68.5468,92.9434 69.4258,93.2024 C69.8678,93.3714 70.1968,93.5174 70.4158,93.6334 C70.6348,93.7374 70.7518,93.7934 70.7518,93.7934" id="Fill-80" fill="#3B4D57"></path>
                    <path d="M68.7811,97.4238 C68.7811,97.4238 68.6341,97.5688 68.3771,97.8238 C68.1061,98.0438 67.7771,98.4548 67.3621,98.8618 C66.9351,99.2558 66.5061,99.7888 66.0111,100.2778 C65.5301,100.7758 65.0221,101.3008 64.5121,101.8278 C63.9881,102.3348 63.4661,102.8408 62.9701,103.3188 C62.4881,103.8078 61.9371,104.2088 61.5261,104.6138 C61.1141,105.0148 60.6551,105.3018 60.4061,105.5528 C60.1061,105.7818 59.9361,105.9118 59.9361,105.9118 C59.9361,105.9118 59.9461,105.6958 59.9641,105.3188 C60.0321,104.9648 60.0471,104.3948 60.2721,103.8118 C60.4801,103.2218 60.7401,102.5188 61.1661,101.8588 C61.5781,101.1878 62.1411,100.5638 62.7271,99.9678 C63.3541,99.4138 64.0391,98.9248 64.7331,98.5578 C65.4261,98.1868 66.1321,97.9548 66.7261,97.7728 C67.3201,97.5828 67.8651,97.5548 68.2121,97.4818 C68.5741,97.4448 68.7811,97.4238 68.7811,97.4238" id="Fill-82" fill="#3B4D57"></path>
                    <path d="M77.7152,99.3681 C77.7152,99.3681 77.1832,99.5761 76.2932,100.0121 C75.3912,100.3991 74.1872,101.1601 72.7772,101.9921 C71.3302,102.7631 69.8482,103.9951 68.2692,105.2141 C66.7162,106.4841 65.1162,107.8771 63.6552,109.4191 C62.1822,110.9481 60.8612,112.6091 59.6662,114.2201 C58.5612,115.8771 57.4092,117.4131 56.7032,118.8911 C56.3142,119.6141 55.9662,120.2861 55.6682,120.8951 C55.3482,121.4981 55.0702,122.0331 54.9172,122.4951 C54.5022,123.4071 54.2652,123.9271 54.2652,123.9271 C54.2652,123.9271 54.2662,123.3521 54.2682,122.3451 C54.2892,121.8401 54.3372,121.2281 54.4272,120.5251 C54.4972,119.8161 54.6172,119.0191 54.8752,118.1851 C55.3092,116.4931 55.9772,114.5291 57.0202,112.5741 C58.0692,110.6221 59.5052,108.7261 61.0902,106.9691 C62.7702,105.3021 64.5972,103.7781 66.4992,102.6421 C68.4302,101.5471 70.3602,100.8011 72.0282,100.2901 C72.8452,99.9901 73.6432,99.8541 74.3472,99.7541 C75.0432,99.6291 75.6522,99.5621 76.1542,99.5161 C77.1622,99.4481 77.7152,99.3681 77.7152,99.3681" id="Fill-84" fill="#3B4D57"></path>
                    <path d="M75.7142,108.6913 C75.7742,108.7073 75.4982,108.2043 74.8322,108.4553 C74.2152,108.6323 73.3542,109.2253 72.4592,109.8853 C71.5302,110.5473 70.6742,111.5873 69.7052,112.6523 C68.7482,113.7493 67.6952,114.9043 66.7272,116.1163 C65.7022,117.2843 64.7792,118.5323 63.8412,119.6603 C62.9422,120.8133 62.0132,121.8573 61.3232,122.8313 C60.6322,123.8003 59.9402,124.5683 59.5292,125.1513 C59.0722,125.7163 58.8112,126.0393 58.8112,126.0393 C58.8112,126.0393 58.8772,125.6273 58.9902,124.9043 C59.1822,124.2143 59.3362,123.1553 59.8082,122.0073 C60.2752,120.8623 60.7842,119.4793 61.5732,118.1313 C62.3232,116.7573 63.3272,115.4203 64.3892,114.1363 C65.5032,112.8933 66.6772,111.7163 67.9102,110.7363 C69.1372,109.7333 70.5262,109.0383 71.7202,108.5423 C72.9392,108.0343 74.0322,108.0193 74.8062,108.0063 C75.6892,108.0913 75.7562,108.7243 75.7142,108.6913" id="Fill-86" fill="#3B4D57"></path>
                    <path d="M78.4994,122.8525 C78.5284,122.8785 78.2574,122.5115 77.7854,122.7485 C77.5624,122.8245 77.3014,123.0125 77.0894,123.2655 C76.8294,123.5585 76.5384,123.8825 76.2094,124.2095 C75.5344,124.8495 74.8734,125.7265 74.1034,126.5515 C73.3444,127.3935 72.5124,128.2465 71.7374,129.1545 C70.9124,130.0155 70.1694,130.9465 69.4134,131.7845 C68.6724,132.6315 67.8884,133.3845 67.3104,134.1085 C66.7364,134.8305 66.1224,135.3815 65.7784,135.8205 C65.3774,136.2365 65.1494,136.4745 65.1494,136.4745 C65.1494,136.4745 65.1854,136.1445 65.2474,135.5675 C65.3744,135.0175 65.4584,134.1655 65.8164,133.2555 C66.1754,132.3525 66.5434,131.2365 67.1844,130.1845 C67.8014,129.1185 68.6114,128.0775 69.4864,127.0985 C70.4054,126.1605 71.3764,125.2705 72.3884,124.5695 C73.4014,123.8645 74.4844,123.4145 75.3504,122.9755 C75.7904,122.7665 76.2264,122.6285 76.6014,122.4965 C77.0344,122.3435 77.4174,122.3055 77.7374,122.3165 C78.4474,122.3965 78.4974,122.8885 78.4994,122.8525" id="Fill-88" fill="#3B4D57"></path>
                    <path d="M175.5287,63.1728 C246.5197,63.1728 304.0887,108.7768 304.0887,165.0238 L311.8787,165.0238 C311.8787,84.9158 258.4857,36.0178 175.5287,36.0178 C92.5697,36.0178 39.1777,75.9628 39.1777,165.0238 L46.9677,165.0238 C46.9677,108.7768 104.5227,63.1728 175.5287,63.1728" id="Fill-90" fill="#335880"></path>
                    <path d="M68.7699,91.0707 C93.7709,63.6347 132.3339,46.0187 175.5289,46.0187 C218.7219,46.0187 257.2919,63.6387 282.2869,91.0707 C256.1699,67.8467 217.9909,53.1727 175.5289,53.1727 C133.0599,53.1727 94.8789,67.8417 68.7699,91.0707" id="Fill-92" fill="#1A2B3D"></path>
                    <path d="M351.6371,224.9882 C353.1451,203.6022 345.5001,185.6482 334.5721,184.8742 C323.6471,184.1092 313.5711,200.8302 312.0671,222.2172 C310.5641,243.6072 318.2071,261.5662 329.1371,262.3312 C340.0621,263.0992 350.1381,246.3802 351.6371,224.9882" id="Fill-94" fill="#335880"></path>
                    <path d="M334.7787,181.9853 C335.5477,171.0233 327.2867,161.5203 316.3287,160.7513 L305.0467,159.9603 C294.0937,159.1913 284.5867,167.4523 283.8177,178.4103 L277.9727,261.6483 C277.2047,272.6063 285.4657,282.1133 296.4187,282.8823 L307.7007,283.6743 C318.6587,284.4383 328.1667,276.1863 328.9337,265.2183 L334.7787,181.9853 Z" id="Fill-96" fill="#1A2B3D"></path>
                    <path d="M0.1898,224.9882 C-1.3182,203.6022 6.3258,185.6482 17.2548,184.8742 C28.1798,184.1092 38.2558,200.8302 39.7588,222.2172 C41.2628,243.6072 33.6188,261.5662 22.6898,262.3312 C11.7648,263.0992 1.6888,246.3802 0.1898,224.9882" id="Fill-98" fill="#335880"></path>
                    <path d="M17.0477,181.9853 C16.2787,171.0233 24.5397,161.5203 35.4977,160.7513 L46.7797,159.9603 C57.7327,159.1913 67.2407,167.4523 68.0087,178.4103 L73.8537,261.6483 C74.6227,272.6063 66.3607,282.1133 55.4077,282.8823 L44.1267,283.6743 C33.1687,284.4383 23.6607,276.1863 22.8927,265.2183 L17.0477,181.9853 Z" id="Fill-100" fill="#1A2B3D"></path>
                    <g id="Group-104" transform="translate(99.000000, 0.000000)">
                        <mask id="mask-6" fill="white">
                            <use xlink:href="#path-5"></use>
                        </mask>
                        <g id="Clip-103"></g>
                        <path d="M200.8705,51.7465 C200.8705,51.7465 201.8545,62.9215 195.9545,73.6105 C195.9545,73.6105 198.4135,4.1325 139.4085,0.2445 C139.4085,0.2445 154.1595,11.9055 150.7175,26.4815 C149.5175,31.5595 145.7075,34.7665 140.5585,36.4175 C140.2575,27.7355 137.0085,12.8715 119.9765,2.8605 C119.9765,2.8605 128.0415,20.8535 114.7745,34.9405 C114.5555,34.8675 114.3325,34.8065 114.1135,34.7295 C114.0715,34.7145 113.9985,34.6785 113.9505,34.6605 C112.6155,27.4285 107.7145,8.2005 92.7255,2.8605 C92.7255,2.8605 102.3595,10.8055 92.9605,24.8205 C83.5605,38.8345 -1.0095,91.5585 0.7475,122.1965 C0.7475,122.1965 7.6325,112.4795 27.7915,115.3935 C47.9515,118.3105 72.5365,159.6095 131.5415,155.2355 C190.5445,150.8635 212.1805,81.8705 200.8705,51.7465" id="Fill-102" fill="#000000" mask="url(#mask-6)"></path>
                    </g>
                    <path d="M99.847,115.1786 C99.847,115.1786 99.868,115.0076 99.91,114.6756 C99.946,114.3416 100.01,113.8486 100.129,113.2096 C100.363,111.9346 100.813,110.0586 101.795,107.8156 C103.766,103.3226 107.866,97.5516 113.721,91.5796 C119.582,85.6166 127.255,79.3386 136.572,74.3736 C145.847,69.3196 156.775,66.0376 167.725,63.9476 C178.727,61.9866 189.787,61.0046 200.08,60.0496 C210.366,59.0726 219.94,58.1296 227.989,56.4246 C236.03,54.7466 242.607,52.7456 247.083,50.9496 C249.328,50.0806 251.013,49.2026 252.202,48.6906 C253.381,48.1496 254.009,47.8616 254.009,47.8616 C254.009,47.8616 253.411,48.2056 252.29,48.8526 C251.156,49.4746 249.55,50.5176 247.386,51.6216 C243.024,53.7246 236.621,56.5956 228.493,58.6246 C220.39,60.6946 210.753,62.3006 200.449,63.4876 C190.149,64.7476 179.171,65.7416 168.415,67.7046 C157.67,69.6466 147.18,72.7056 138.065,77.2726 C128.948,81.8126 121.092,87.3966 115.111,93.0076 C109.148,98.6276 104.535,103.8126 102.36,108.0916 C101.199,110.1876 100.594,111.9936 100.256,113.2386 C100.086,113.8626 99.989,114.3486 99.936,114.6786 C99.877,115.0086 99.847,115.1786 99.847,115.1786" id="Fill-105" fill="#3B4D57"></path>
                    <path d="M242.1185,101.0468 C242.1185,101.0468 243.0155,100.5838 244.5865,99.7748 C245.3855,99.4028 246.2955,98.8318 247.3385,98.1858 C248.3915,97.5638 249.5575,96.8288 250.7945,95.9778 C253.3475,94.4068 256.0675,92.2018 258.9405,89.8568 C261.7555,87.4258 264.6155,84.6988 267.2765,81.7858 C269.9345,78.8688 272.3695,75.7668 274.5465,72.7718 C276.6185,69.7158 278.6345,66.8698 280.0225,64.2258 C280.7645,62.9298 281.4245,61.7268 281.9955,60.6468 C282.5945,59.5778 283.1175,58.6388 283.4605,57.8298 C284.2705,56.2468 284.7325,55.3438 284.7325,55.3438 C284.7325,55.3438 284.5295,56.3408 284.1735,58.0888 C283.9745,58.9598 283.6955,60.0068 283.3305,61.1988 C282.9915,62.4028 282.5545,63.7458 281.9265,65.1478 C280.7745,67.9968 279.1905,71.2438 277.1425,74.5188 C275.0675,77.7788 272.4825,81.0058 269.6965,84.0418 C266.8005,86.9758 263.6985,89.6968 260.5685,91.9448 C257.4115,94.1548 254.3085,95.9638 251.5575,97.3078 C250.1985,98.0128 248.9015,98.5508 247.7425,98.9968 C246.5975,99.4708 245.5835,99.8388 244.7425,100.1258 C243.0725,100.7118 242.1185,101.0468 242.1185,101.0468" id="Fill-107" fill="#3B4D57"></path>
                    <path d="M192.6371,114.9872 C192.6371,114.9872 193.5681,114.3142 195.1961,113.1372 C196.0331,112.5892 196.9581,111.7932 198.0161,110.8852 C199.0971,110.0082 200.2771,108.9762 201.5131,107.7942 C204.0651,105.5202 206.7091,102.5222 209.5831,99.3742 C212.3961,96.1592 215.3271,92.6592 218.2311,89.1172 C221.1691,85.6002 224.1091,82.0602 227.0301,78.8672 C229.9611,75.6832 232.8661,72.8532 235.4911,70.5762 C236.7661,69.4002 238.0241,68.4202 239.1691,67.5912 C240.2951,66.7432 241.2961,66.0342 242.1511,65.4892 C243.8581,64.4152 244.8321,63.8012 244.8321,63.8012 C244.8321,63.8012 243.9851,64.5772 242.4991,65.9362 C241.7241,66.5682 240.8651,67.4332 239.8901,68.4302 C238.8921,69.4002 237.7891,70.5112 236.6151,71.7542 C234.1951,74.1632 231.6581,77.2542 228.8571,80.4762 C226.1051,83.7692 223.1681,87.2812 220.2331,90.7932 C217.2381,94.2792 214.2051,97.7572 211.1631,100.8472 C208.1121,103.9322 205.0691,106.6212 202.3091,108.7292 C200.9681,109.8292 199.6601,110.7372 198.4711,111.4952 C197.3081,112.2872 196.2681,112.9332 195.3821,113.4192 C193.6361,114.4172 192.6371,114.9872 192.6371,114.9872" id="Fill-109" fill="#3B4D57"></path>
                    <path d="M164.8754,120.059 C164.8754,120.059 166.2754,119.627 168.5534,118.498 C170.8544,117.426 173.9354,115.499 177.3394,112.856 C180.7614,110.217 184.3104,106.635 187.9034,102.601 C191.4734,98.484 195.2794,94.095 199.0864,89.705 C203.0164,85.35 207.2434,81.18 211.5394,77.71 C215.8024,74.19 220.1664,71.413 223.9184,69.12 C227.6794,66.826 231.0234,65.297 233.3294,64.198 C235.6754,63.181 237.0144,62.601 237.0144,62.601 C237.0144,62.601 235.7514,63.332 233.6244,64.738 C231.4624,66.08 228.4954,68.187 224.9794,70.72 C221.4444,73.233 217.5824,76.503 213.5404,80.06 C209.4974,83.633 205.3994,87.638 201.5324,91.926 C197.5934,96.15 193.8034,100.606 189.8434,104.449 C185.9254,108.334 181.8684,111.586 178.1934,114.041 C174.5164,116.516 171.0924,117.955 168.7044,118.855 C166.2864,119.705 164.8754,120.059 164.8754,120.059" id="Fill-111" fill="#3B4D57"></path>
                    <path d="M152.2777,121.2929 C152.2777,121.2929 152.8477,121.0409 153.7927,120.5099 C154.7517,120.0159 156.0537,119.1909 157.5737,118.1939 C159.1027,117.1999 160.7367,115.8479 162.4177,114.3449 C164.0957,112.8349 165.8017,111.1279 167.4877,109.3729 C169.2097,107.6539 170.8727,105.8459 172.5347,104.2229 C174.1657,102.5709 175.8467,101.1559 177.2837,99.9519 C178.7037,98.7269 180.0677,97.9109 180.9617,97.2909 C181.9027,96.7309 182.4387,96.4109 182.4387,96.4109 C182.4387,96.4109 182.0227,96.8729 181.2927,97.6809 C180.5507,98.4709 179.5977,99.6939 178.3907,101.0799 C177.2147,102.4979 175.8397,104.1549 174.3707,105.9249 C172.8837,107.6939 171.2197,109.5329 169.4777,111.3329 C167.7027,113.0959 165.7947,114.7659 163.8547,116.1429 C161.9327,117.5499 159.9437,118.5729 158.2417,119.3859 C156.5297,120.1989 154.9987,120.6129 153.9507,120.9109 C152.8847,121.1539 152.2777,121.2929 152.2777,121.2929" id="Fill-113" fill="#3B4D57"></path>
                    <path d="M105.472,117.935 C105.472,117.935 105.87,116.813 106.667,114.874 C107.493,112.955 108.738,110.206 110.675,107.152 C112.624,104.116 115.081,100.65 118.171,97.318 C121.229,93.96 124.89,90.756 128.78,87.869 C132.709,85.044 136.843,82.516 140.883,80.492 C144.909,78.44 148.837,76.906 152.209,75.667 C155.585,74.426 158.498,73.688 160.503,73.102 C162.529,72.58 163.686,72.282 163.686,72.282 C163.686,72.282 162.608,72.791 160.718,73.684 C158.815,74.533 156.167,75.915 152.97,77.459 C149.776,79.014 146.127,80.963 142.28,83.106 C138.448,85.282 134.434,87.71 130.635,90.444 C126.809,93.132 123.21,96.127 120.008,99.129 C116.833,102.157 114.036,105.186 111.903,108.004 C109.775,110.82 108.109,113.279 107.085,115.086 C106.007,116.865 105.472,117.935 105.472,117.935" id="Fill-115" fill="#3B4D57"></path>
                </g>
                <path d="M237.0179,257.4463 C216.4379,257.4463 199.7559,240.7673 199.7559,220.1843 C199.7559,199.6073 216.4379,182.9263 237.0179,182.9263 C257.5969,182.9263 274.2799,199.6073 274.2799,220.1843 C274.2799,240.7673 257.5969,257.4463 237.0179,257.4463 M115.1569,257.4463 C94.5769,257.4463 77.8919,240.7673 77.8919,220.1843 C77.8919,199.6073 94.5769,182.9263 115.1569,182.9263 C135.7339,182.9263 152.4149,199.6073 152.4149,220.1843 C152.4149,240.7673 135.7339,257.4463 115.1569,257.4463 M293.3959,196.9793 C293.3959,193.7273 292.3239,193.1883 289.3329,193.1883 C287.8519,193.1883 280.6609,191.0413 271.4319,188.8833 C262.9169,179.5213 250.6719,173.6103 237.0179,173.6103 C221.3039,173.6103 207.4399,181.4083 199.0009,193.3333 C190.4049,195.7103 178.5289,195.9043 175.3879,195.9043 C172.4509,195.9043 161.8819,195.7343 153.4959,193.7683 C145.0929,181.5933 131.0619,173.6103 115.1569,173.6103 C101.6949,173.6103 89.6019,179.3543 81.0979,188.4813 C71.0519,190.7623 63.0159,193.1883 61.4399,193.1883 C58.4679,193.1883 57.3839,193.7273 57.3869,196.9793 C57.3869,200.2313 56.3039,205.3793 60.9039,209.4413 C65.5049,213.5003 66.5879,216.2053 67.6709,219.9933 C67.8539,220.6443 68.1879,222.1813 68.7849,224.2213 C70.8309,248.0463 90.7939,266.7653 115.1569,266.7653 C140.8759,266.7653 161.7289,245.9093 161.7289,220.1843 C161.7289,220.1383 161.7239,220.0963 161.7239,220.0563 C162.6339,217.3913 163.1929,215.3273 163.4789,214.3203 C165.1099,208.6363 172.1449,205.9313 175.3879,205.6583 C178.6379,205.9313 185.6729,208.6363 187.3029,214.3203 C187.7239,215.8053 188.7309,219.5803 190.6509,224.2793 C192.7239,248.0783 212.6779,266.7653 237.0179,266.7653 C262.7399,266.7653 283.5949,245.9093 283.5949,220.1843 C283.5949,219.6683 283.5329,219.1673 283.5189,218.6553 C284.5149,215.5233 285.8409,213.0023 289.8809,209.4413 C294.4869,205.3793 293.4039,200.2313 293.3959,196.9793" id="Fill-118" fill="#253C54"></path>
            </g>
        </g>
    </g>
</svg>